HIERARCHY
ROOT joint_Root
{
	OFFSET 0.0 0.0 0.0
	CHANNELS 6 Xposition Yposition Zposition Zrotation Xrotation Yrotation 
	JOINT Hips
	{
		OFFSET -17.1583 93.1646 452.98
		CHANNELS 6 Xposition Yposition Zposition Zrotation Xrotation Yrotation 
		JOINT Spine
		{
			OFFSET 15.7357 0.0 0.0
			CHANNELS 6 Xposition Yposition Zposition Zrotation Xrotation Yrotation 
			JOINT Chest
			{
				OFFSET 8.98455 -0.406207 0.0
				CHANNELS 6 Xposition Yposition Zposition Zrotation Xrotation Yrotation 
				JOINT Neck
				{
					OFFSET 16.3773 0.0 0.0
					CHANNELS 6 Xposition Yposition Zposition Zrotation Xrotation Yrotation 
					JOINT Head
					{
						OFFSET 6.45672 0.0 0.0
						CHANNELS 6 Xposition Yposition Zposition Zrotation Xrotation Yrotation 
						End Site
						{
							OFFSET 0.0 0.0 0.0
						}
					}
				}
				JOINT Shoulder_L
				{
					OFFSET 12.9942 -0.242716 4.98039
					CHANNELS 6 Xposition Yposition Zposition Zrotation Xrotation Yrotation 
					JOINT UpperArm_L
					{
						OFFSET 5.34809 0.0 0.0
						CHANNELS 6 Xposition Yposition Zposition Zrotation Xrotation Yrotation 
						JOINT LowerArm_L
						{
							OFFSET 24.3286 1.87007e-05 0.0
							CHANNELS 6 Xposition Yposition Zposition Zrotation Xrotation Yrotation 
							JOINT Hand_L
							{
								OFFSET 22.2916 0.0 0.0
								CHANNELS 6 Xposition Yposition Zposition Zrotation Xrotation Yrotation 
								End Site
								{
									OFFSET 0.0 0.0 0.0
								}
							}
						}
					}
				}
				JOINT Shoulder_R
				{
					OFFSET 12.9945 -0.242716 -4.98039
					CHANNELS 6 Xposition Yposition Zposition Zrotation Xrotation Yrotation 
					JOINT UpperArm_R
					{
						OFFSET -5.34813 0.0 0.0
						CHANNELS 6 Xposition Yposition Zposition Zrotation Xrotation Yrotation 
						JOINT LowerArm_R
						{
							OFFSET -24.3289 0.000322201 0.0
							CHANNELS 6 Xposition Yposition Zposition Zrotation Xrotation Yrotation 
							JOINT Hand_R
							{
								OFFSET -22.2915 -0.000108084 0.0
								CHANNELS 6 Xposition Yposition Zposition Zrotation Xrotation Yrotation 
								End Site
								{
									OFFSET 0.0 0.0 0.0
								}
							}
						}
					}
				}
			}
		}
		JOINT UpperLeg_L
		{
			OFFSET -2.19248 -6.46944 0.0
			CHANNELS 6 Xposition Yposition Zposition Zrotation Xrotation Yrotation 
			JOINT LowerLeg_L
			{
				OFFSET 39.0811 0.0 -1.23785e-05
				CHANNELS 6 Xposition Yposition Zposition Zrotation Xrotation Yrotation 
				JOINT Foot_L
				{
					OFFSET 40.9854 0.0 -1.26872e-05
					CHANNELS 6 Xposition Yposition Zposition Zrotation Xrotation Yrotation 
					JOINT Toes_L
					{
						OFFSET 11.7543 0.0 0.0
						CHANNELS 6 Xposition Yposition Zposition Zrotation Xrotation Yrotation 
						End Site
						{
							OFFSET 0.0 0.0 0.0
						}
					}
				}
			}
		}
		JOINT UpperLeg_R
		{
			OFFSET -2.19251 6.46944 0.0
			CHANNELS 6 Xposition Yposition Zposition Zrotation Xrotation Yrotation 
			JOINT LowerLeg_R
			{
				OFFSET -39.0811 -0.00228153 -0.0401928
				CHANNELS 6 Xposition Yposition Zposition Zrotation Xrotation Yrotation 
				JOINT Foot_R
				{
					OFFSET -40.9854 0.0 0.0
					CHANNELS 6 Xposition Yposition Zposition Zrotation Xrotation Yrotation 
					JOINT Toes_R
					{
						OFFSET -11.7543 0.0 0.0
						CHANNELS 6 Xposition Yposition Zposition Zrotation Xrotation Yrotation 
						End Site
						{
							OFFSET 0.0 0.0 0.0
						}
					}
				}
			}
		}
	}
}
MOTION
Frames:	4
Frame Time:	0.0333333
0.000000 0.000000 0.000000 0.000000 0.000000 -0.000000 0.277058 92.819100 2.665880 89.504100 4.563250 2.325040 15.735700 0.000005 -0.000001 75.163500 87.158000 -67.231400 8.984550 -0.406207 -0.000000 -2.074740 -2.133680 15.825400 16.377300 -0.000001 -0.000001 2.245240 3.071070 5.811780 6.456720 -0.000001 -0.000000 -15.424600 -4.456230 21.494500 12.994200 -0.242716 4.980390 -87.964700 -4.074820 -63.429100 5.348090 -0.000007 -0.000001 -58.313800 -62.394600 -98.137900 24.328600 0.000019 0.000005 0.267390 10.161500 -1.515000 22.291600 -0.000001 0.000005 42.037000 4.730160 12.611800 12.994500 -0.242716 -4.980390 87.876700 6.014080 -70.512900 -5.348130 -0.000001 -0.000004 -58.459400 10.145800 -8.590670 -24.328900 0.000322 -0.000009 1.330530 6.273020 -12.009700 -22.291500 -0.000108 -0.000004 6.367600 5.255640 1.283190 -2.192480 -6.469440 -0.000000 -174.130000 -9.658390 2.329440 39.081100 -0.000007 -0.000012 0.020441 -0.078408 14.612000 40.985400 -0.000006 -0.000013 0.813383 20.041800 -69.716000 11.754300 -0.000000 0.000003 -0.002214 0.198996 -8.503090 -2.192510 6.469440 -0.000001 174.814000 10.286600 -174.895000 -39.081100 -0.002282 -0.040193 0.009892 -0.031304 11.828900 -40.985400 0.000008 0.000006 -6.518440 4.140000 -68.939300 -11.754300 -0.000006 -0.000006 -0.011602 0.282912 -5.075990
0.000000 0.000000 0.000000 0.000000 0.000000 -0.000000 0.247877 92.816900 2.679190 89.497700 4.618670 2.350580 15.735700 0.000005 -0.000001 75.510900 87.158300 -67.630000 8.984550 -0.406207 -0.000000 -2.070680 -2.095610 15.723900 16.377300 -0.000001 -0.000001 2.311620 3.001090 5.855950 6.456720 -0.000001 -0.000000 -15.436000 -4.551110 21.357800 12.994200 -0.242716 4.980390 -87.972900 -4.060280 -63.440200 5.348090 -0.000007 -0.000001 -58.281800 -62.371900 -97.812100 24.328600 0.000019 0.000005 0.271275 10.189900 -1.532770 22.291600 -0.000001 0.000005 41.962600 4.724820 12.709000 12.994500 -0.242716 -4.980390 87.903300 5.939290 -70.515500 -5.348130 -0.000001 -0.000004 -58.277500 9.967560 -8.661170 -24.328900 0.000322 -0.000009 1.361500 6.426090 -11.997900 -22.291500 -0.000108 -0.000004 6.383810 5.253690 1.334930 -2.192480 -6.469440 -0.000000 -174.093000 -9.602280 2.354880 39.081100 -0.000007 -0.000012 0.019321 -0.074201 14.595100 40.985400 -0.000006 -0.000013 0.780881 20.045500 -69.652000 11.754300 -0.000000 0.000003 -0.001936 0.195540 -8.643640 -2.192510 6.469440 -0.000001 174.842000 10.288000 -174.861000 -39.081100 -0.002282 -0.040193 0.010090 -0.032231 11.835800 -40.985400 0.000008 0.000006 -6.487320 4.068570 -68.956100 -11.754300 -0.000006 -0.000006 -0.011516 0.282305 -5.100860
0.000000 0.000000 0.000000 0.000000 0.000000 -0.000000 0.228105 92.805000 2.689910 89.458000 4.629040 2.352440 15.735700 0.000005 -0.000001 75.395900 87.177000 -67.553700 8.984550 -0.406207 -0.000000 -2.110880 -2.096680 15.645800 16.377300 -0.000001 -0.000001 2.375820 2.928080 5.882500 6.456720 -0.000001 -0.000000 -15.346300 -4.619270 21.310000 12.994200 -0.242716 4.980390 -87.993900 -4.012450 -63.408300 5.348090 -0.000007 -0.000001 -57.808500 -62.365600 -97.263500 24.328600 0.000019 0.000005 0.250866 10.212100 -1.414430 22.291600 -0.000001 0.000005 41.865300 4.717460 12.842600 12.994500 -0.242716 -4.980390 87.930800 5.860740 -70.514900 -5.348130 -0.000001 -0.000004 -58.156500 9.876120 -8.654470 -24.328900 0.000322 -0.000009 1.368040 6.434710 -12.038200 -22.291500 -0.000108 -0.000004 6.366010 5.255030 1.299480 -2.192480 -6.469440 -0.000000 -174.058000 -9.467390 2.280940 39.081100 -0.000007 -0.000012 0.019330 -0.073478 14.739200 40.985400 -0.000006 -0.000013 0.780000 19.942500 -69.706000 11.754300 -0.000000 0.000003 -0.002109 0.197703 -8.555680 -2.192510 6.469440 -0.000001 174.882000 10.399200 -174.898000 -39.081100 -0.002282 -0.040193 0.010842 -0.035532 11.929400 -40.985400 0.000008 0.000006 -6.413320 4.159060 -69.014600 -11.754300 -0.000006 -0.000006 -0.011786 0.284201 -5.023200
0.000000 0.000000 0.000000 0.000000 0.000000 -0.000000 0.214115 92.813700 2.695210 89.439500 4.543910 2.295780 15.735700 0.000005 -0.000001 75.599000 87.202800 -67.789100 8.984550 -0.406207 -0.000000 -2.159070 -2.064980 15.581100 16.377300 -0.000001 -0.000001 2.393070 2.906060 5.851530 6.456720 -0.000001 -0.000000 -15.272900 -4.648350 21.274500 12.994200 -0.242716 4.980390 -88.024300 -3.945370 -63.372100 5.348090 -0.000007 -0.000001 -57.494800 -62.418500 -96.824200 24.328600 0.000019 0.000005 0.240853 10.112900 -1.371160 22.291600 -0.000001 0.000005 41.910600 4.719420 12.807100 12.994500 -0.242716 -4.980390 87.944900 5.812050 -70.487900 -5.348130 -0.000001 -0.000004 -58.052400 9.764460 -8.680840 -24.328900 0.000322 -0.000009 1.371980 6.428790 -12.082600 -22.291500 -0.000108 -0.000004 6.332820 5.253460 1.341090 -2.192480 -6.469440 -0.000000 -174.035000 -9.569640 2.274790 39.081100 -0.000007 -0.000012 0.019148 -0.073190 14.661600 40.985400 -0.000006 -0.000013 0.751035 19.921400 -69.685600 11.754300 -0.000000 0.000003 -0.002011 0.196485 -8.605180 -2.192510 6.469440 -0.000001 174.902000 10.345800 -174.892000 -39.081100 -0.002282 -0.040193 0.009517 -0.029599 11.796000 -40.985400 0.000008 0.000006 -6.507240 4.237830 -68.923200 -11.754300 -0.000006 -0.000006 -0.011354 0.281159 -5.147740
